<?xml version="1.0" standalone="no"?>
<!DOCTYPE svg PUBLIC "-//W3C//DTD SVG 20010904//EN"
 "http://www.w3.org/TR/2001/REC-SVG-20010904/DTD/svg10.dtd">
<svg version="1.0" xmlns="http://www.w3.org/2000/svg"
 width="536.000000pt" height="536.000000pt" viewBox="0 0 536.000000 536.000000"
 preserveAspectRatio="xMidYMid meet">
<metadata>
Created by potrace 1.14, written by Peter Selinger 2001-2017
</metadata>
<g transform="translate(0.000000,536.000000) scale(0.100000,-0.100000)"
fill="#000000" stroke="none">
<path d="M2456 4548 c-132 -76 -240 -138 -242 -138 -2 0 -5 53 -6 117 l-3 117
-140 -1 c-77 -1 -146 -2 -152 -2 -10 -1 -13 -50 -13 -208 l0 -208 -97 -55
c-53 -30 -117 -66 -142 -80 -25 -14 -92 -51 -148 -83 l-103 -58 0 -160 0 -161
83 45 c45 24 99 54 121 66 173 98 477 261 484 261 6 0 12 4 14 8 2 5 46 31 98
59 52 27 115 61 140 75 204 114 341 188 346 188 3 0 18 -9 32 -19 15 -10 29
-18 32 -18 3 0 25 -11 50 -25 51 -29 186 -105 258 -145 26 -14 81 -45 122 -68
42 -24 105 -59 140 -78 36 -19 186 -103 335 -186 148 -82 272 -148 275 -146 3
2 5 74 5 161 l0 158 -47 27 c-25 15 -66 38 -90 52 -23 13 -66 38 -94 55 -28
18 -56 32 -63 32 -6 0 -11 5 -11 10 0 6 -4 10 -9 10 -5 0 -90 47 -188 104
-225 130 -435 252 -491 283 -23 13 -91 52 -150 86 l-107 63 -239 -138z"/>
<path d="M1875 3537 c-11 -7 -80 -45 -153 -86 l-132 -74 0 -124 c0 -68 -3
-123 -6 -123 -4 0 -40 21 -82 46 -41 25 -82 46 -91 46 -9 1 -125 -61 -259
-136 -133 -75 -244 -136 -246 -136 -2 0 -3 53 -2 118 l1 117 -135 1 c-74 0
-141 -2 -147 -4 -10 -3 -13 -52 -13 -198 0 -175 -2 -195 -17 -201 -10 -4 -43
-24 -75 -45 -31 -21 -62 -38 -68 -38 -5 0 -10 -4 -10 -10 0 -5 -4 -10 -9 -10
-5 0 -78 -43 -163 -95 -84 -52 -179 -109 -210 -126 l-58 -32 0 -168 c0 -101 4
-169 10 -169 5 0 32 14 60 30 28 17 79 45 113 64 34 19 161 90 282 158 121 69
245 139 275 155 30 17 192 108 359 202 167 94 307 171 312 171 7 0 415 -250
1064 -653 116 -72 215 -130 220 -130 10 0 231 137 999 619 l259 163 26 -18
c14 -10 67 -40 116 -67 50 -27 99 -54 110 -61 11 -7 27 -15 35 -20 8 -4 168
-92 355 -196 187 -104 358 -199 380 -211 309 -172 372 -206 378 -206 4 0 7 72
7 159 l0 160 -27 13 c-16 8 -89 50 -163 93 -297 173 -373 215 -381 215 -5 0
-9 5 -9 10 0 6 -7 10 -15 10 -19 0 -17 -15 -19 225 l-1 200 -152 2 -153 1 -1
-26 c0 -15 -1 -69 -1 -120 l0 -93 -66 37 c-37 21 -111 64 -165 96 -55 32 -101
58 -103 58 -2 0 -37 21 -79 46 l-75 46 -71 -41 c-39 -23 -74 -41 -77 -41 -4 0
-6 48 -6 107 1 60 -2 114 -5 121 -4 7 -72 48 -152 91 l-144 78 -3 -291 -2
-291 -137 -85 c-75 -47 -143 -86 -150 -88 -7 -2 -13 -8 -13 -13 0 -5 -5 -9
-10 -9 -6 0 -44 -22 -86 -50 -41 -27 -77 -50 -79 -50 -2 0 -72 -43 -157 -97
-84 -53 -157 -96 -163 -96 -5 0 -161 94 -345 208 -184 115 -345 213 -357 219
-13 6 -23 14 -23 19 0 4 -6 7 -12 7 -7 0 -23 8 -36 18 -22 17 -22 18 -23 315
0 163 -1 297 -2 296 -1 -1 -11 -6 -22 -12z"/>
<path d="M458 2006 l-148 -71 1 -310 0 -310 142 -80 c78 -44 147 -81 154 -83
7 -2 13 -8 13 -13 0 -5 4 -9 9 -9 5 0 65 -32 133 -71 67 -40 155 -90 193 -112
171 -98 431 -250 440 -258 7 -5 55 17 120 55 61 35 304 175 540 311 237 136
436 253 444 260 11 10 13 63 13 257 -1 133 -1 248 -1 254 -1 6 -40 35 -88 64
-49 29 -111 68 -140 86 -28 19 -55 34 -60 34 -5 0 -9 -33 -10 -72 0 -40 -2
-152 -3 -250 -2 -97 -5 -181 -9 -186 -3 -5 -89 -58 -191 -117 -102 -59 -268
-156 -370 -215 -102 -59 -195 -112 -207 -119 -23 -12 -61 5 -193 85 -30 18
-183 107 -340 197 l-285 165 0 285 c0 157 -2 287 -5 290 -3 2 -71 -28 -152
-67z"/>
<path d="M4749 2062 c0 -9 -2 -142 -3 -295 l-2 -278 -100 -58 c-54 -31 -233
-135 -397 -229 l-297 -172 -53 29 c-28 16 -113 65 -188 108 -74 44 -142 82
-150 86 -8 4 -30 17 -49 28 -19 12 -54 32 -77 45 -23 13 -95 55 -160 93 l-118
69 1 104 c1 56 4 174 7 261 2 86 3 157 1 157 -3 0 -184 -111 -302 -186 -4 -2
-9 -175 -12 -383 -2 -93 1 -126 11 -135 8 -7 111 -68 229 -136 118 -68 283
-163 367 -211 83 -49 169 -98 190 -110 21 -12 52 -30 68 -40 17 -10 51 -29 76
-43 26 -14 68 -39 95 -56 26 -16 53 -30 60 -30 7 0 122 63 256 141 133 78 261
151 283 164 22 12 107 61 188 109 82 47 151 86 153 86 3 0 33 17 67 38 34 22
83 51 108 65 26 15 49 32 51 39 2 7 4 143 3 301 l-1 288 -85 48 c-218 121
-219 122 -220 103z"/>
</g>
</svg>
